# xmcd CD database file
#
# Track frame offsets:
#	150
#	21187
#	37717
#	54287
#	75087
#	99535
#	126272
#	147985
#	151780
#	163850
#	187885
#	211782
#	222005
#	237102
#	267165
#	274967
#
# Disc length: 3864 seconds
#
# Revision: 2
# Processed by: cddbd v1.4PL0 Copyright (c) Steve Scherf et al.
# Submitted via: CDex 1.50Beta7
#
DISCID=c80f1610
DTITLE=Ryuichi Sakamoto - Ryuichi Sakamoto 2000
DYEAR=2000
DGENRE=New Age
TTITLE0=Tango[Version Castellano:Soraya-Vocal]
TTITLE1=Bring them Home
TTITLE2=Rain
TTITLE3=The Sheltering Sky
TTITLE4=Poesia
TTITLE5=The Last Emperor
TTITLE6=Merry Christmas Mr.Lawrence
TTITLE7=Insensatez
TTITLE8=Manatsu no Yo Ana
TTITLE9=Rio
TTITLE10=A Day in the Park
TTITLE11=Aoneko no Torso
TTITLE12=High Heels[Main Theme]
TTITLE13=Bibo no Aozora
TTITLE14=A Day a Gorilla Gives a Banana
TTITLE15=A Tribute to N.J.P
EXTD=YEAR: 2000
EXTT0=
EXTT1=
EXTT2=
EXTT3=
EXTT4=
EXTT5=
EXTT6=
EXTT7=
EXTT8=
EXTT9=
EXTT10=
EXTT11=
EXTT12=
EXTT13=
EXTT14=
EXTT15=
PLAYORDER=
